<svg width="360" height="40" viewBox="0 0 360 40" fill="none" xmlns="http://www.w3.org/2000/svg">
<g clip-path="url(#clip0_22_18478)">
<rect width="40" height="40" rx="20" fill="#FFE4E6"/>
<path d="M20 8.33333C19.0717 8.33333 18.1815 8.70208 17.5251 9.35845C16.8687 10.0148 16.5 10.9051 16.5 11.8333V20C16.5 20.9283 16.8687 21.8185 17.5251 22.4749C18.1815 23.1312 19.0717 23.5 20 23.5C20.9283 23.5 21.8185 23.1312 22.4749 22.4749C23.1313 21.8185 23.5 20.9283 23.5 20V11.8333C23.5 10.9051 23.1313 10.0148 22.4749 9.35845C21.8185 8.70208 20.9283 8.33333 20 8.33333Z" stroke="#E11D48" stroke-width="2" stroke-linecap="round" stroke-linejoin="round"/>
<path d="M28.1667 17.6667V20C28.1667 22.1659 27.3063 24.2432 25.7747 25.7747C24.2432 27.3063 22.166 28.1667 20 28.1667C17.8341 28.1667 15.7569 27.3063 14.2253 25.7747C12.6938 24.2432 11.8334 22.1659 11.8334 20V17.6667" stroke="#E11D48" stroke-width="2" stroke-linecap="round" stroke-linejoin="round"/>
<path d="M20 28.1667V31.6667" stroke="#E11D48" stroke-width="2" stroke-linecap="round" stroke-linejoin="round"/>
<path d="M50 12.5L50 27.5" stroke="#262626" stroke-width="2" stroke-linecap="round"/>
<path d="M55 8.5L55 31.5" stroke="#262626" stroke-width="2" stroke-linecap="round"/>
<path d="M60 5.5L60 34.5" stroke="#262626" stroke-width="2" stroke-linecap="round"/>
<path d="M65 12L65 28" stroke="#262626" stroke-width="2" stroke-linecap="round"/>
<path d="M70 11L70 29" stroke="#262626" stroke-width="2" stroke-linecap="round"/>
<path d="M75 16.5L75 23.5" stroke="#262626" stroke-width="2" stroke-linecap="round"/>
<path d="M80 17L80 23" stroke="#262626" stroke-width="2" stroke-linecap="round"/>
<path d="M85 16L85 24" stroke="#262626" stroke-width="2" stroke-linecap="round"/>
<path d="M90 17L90 23" stroke="#262626" stroke-width="2" stroke-linecap="round"/>
<path d="M95 14L95 26" stroke="#262626" stroke-width="2" stroke-linecap="round"/>
<path d="M100 12L100 28" stroke="#262626" stroke-width="2" stroke-linecap="round"/>
<path d="M105 10.5L105 29.5" stroke="#262626" stroke-width="2" stroke-linecap="round"/>
<path d="M110 13L110 27" stroke="#262626" stroke-width="2" stroke-linecap="round"/>
<path d="M115 6.5L115 33.5" stroke="#262626" stroke-width="2" stroke-linecap="round"/>
<path d="M120 15.5L120 24.5" stroke="#262626" stroke-width="2" stroke-linecap="round"/>
<path d="M122 20H319" stroke="#D4D4D4" stroke-width="2" stroke-linecap="round"/>
<path d="M335.276 20.204C335.276 20.9 335.224 21.52 335.12 22.064C335.016 22.608 334.848 23.072 334.616 23.456C334.392 23.832 334.096 24.12 333.728 24.32C333.368 24.52 332.932 24.62 332.42 24.62C331.78 24.62 331.248 24.444 330.824 24.092C330.408 23.74 330.096 23.236 329.888 22.58C329.688 21.916 329.588 21.124 329.588 20.204C329.588 19.276 329.68 18.484 329.864 17.828C330.056 17.172 330.36 16.672 330.776 16.328C331.192 15.976 331.74 15.8 332.42 15.8C333.06 15.8 333.592 15.976 334.016 16.328C334.44 16.672 334.756 17.172 334.964 17.828C335.172 18.484 335.276 19.276 335.276 20.204ZM330.644 20.204C330.644 20.988 330.7 21.64 330.812 22.16C330.932 22.68 331.12 23.072 331.376 23.336C331.64 23.592 331.988 23.72 332.42 23.72C332.852 23.72 333.196 23.592 333.452 23.336C333.716 23.08 333.908 22.692 334.028 22.172C334.148 21.644 334.208 20.988 334.208 20.204C334.208 19.42 334.148 18.772 334.028 18.26C333.908 17.74 333.716 17.352 333.452 17.096C333.196 16.832 332.852 16.7 332.42 16.7C331.988 16.7 331.64 16.832 331.376 17.096C331.12 17.352 330.932 17.74 330.812 18.26C330.7 18.772 330.644 19.42 330.644 20.204ZM342.107 24.5H336.443V23.624L338.687 21.356C339.119 20.924 339.483 20.54 339.779 20.204C340.075 19.868 340.299 19.54 340.451 19.22C340.603 18.892 340.679 18.536 340.679 18.152C340.679 17.68 340.539 17.324 340.259 17.084C339.979 16.836 339.615 16.712 339.167 16.712C338.751 16.712 338.383 16.784 338.063 16.928C337.751 17.072 337.431 17.272 337.103 17.528L336.539 16.82C336.763 16.628 337.007 16.456 337.271 16.304C337.543 16.152 337.835 16.032 338.147 15.944C338.467 15.856 338.807 15.812 339.167 15.812C339.703 15.812 340.163 15.904 340.547 16.088C340.931 16.272 341.227 16.536 341.435 16.88C341.651 17.216 341.759 17.62 341.759 18.092C341.759 18.428 341.707 18.748 341.603 19.052C341.499 19.348 341.351 19.64 341.159 19.928C340.967 20.216 340.735 20.508 340.463 20.804C340.191 21.1 339.891 21.408 339.563 21.728L337.775 23.492V23.54H342.107V24.5ZM343.598 23.852C343.598 23.556 343.67 23.348 343.814 23.228C343.958 23.108 344.13 23.048 344.33 23.048C344.538 23.048 344.714 23.108 344.858 23.228C345.01 23.348 345.086 23.556 345.086 23.852C345.086 24.14 345.01 24.348 344.858 24.476C344.714 24.604 344.538 24.668 344.33 24.668C344.13 24.668 343.958 24.604 343.814 24.476C343.67 24.348 343.598 24.14 343.598 23.852ZM343.598 18.716C343.598 18.412 343.67 18.2 343.814 18.08C343.958 17.96 344.13 17.9 344.33 17.9C344.538 17.9 344.714 17.96 344.858 18.08C345.01 18.2 345.086 18.412 345.086 18.716C345.086 19.004 345.01 19.212 344.858 19.34C344.714 19.468 344.538 19.532 344.33 19.532C344.13 19.532 343.958 19.468 343.814 19.34C343.67 19.212 343.598 19.004 343.598 18.716ZM352.569 22.556H351.321V24.5H350.301V22.556H346.197V21.656L350.229 15.884H351.321V21.608H352.569V22.556ZM350.301 18.908C350.301 18.7 350.301 18.512 350.301 18.344C350.309 18.168 350.317 18.004 350.325 17.852C350.333 17.7 350.337 17.556 350.337 17.42C350.345 17.276 350.353 17.14 350.361 17.012H350.313C350.249 17.164 350.169 17.328 350.073 17.504C349.977 17.68 349.885 17.828 349.797 17.948L347.229 21.608H350.301V18.908ZM353.473 20.84C353.473 20.344 353.505 19.856 353.569 19.376C353.641 18.896 353.761 18.444 353.929 18.02C354.097 17.588 354.329 17.208 354.625 16.88C354.921 16.544 355.293 16.284 355.741 16.1C356.197 15.908 356.749 15.812 357.397 15.812C357.565 15.812 357.749 15.82 357.949 15.836C358.157 15.852 358.325 15.88 358.453 15.92V16.82C358.309 16.772 358.145 16.736 357.961 16.712C357.785 16.688 357.605 16.676 357.421 16.676C356.869 16.676 356.409 16.768 356.041 16.952C355.673 17.136 355.381 17.388 355.165 17.708C354.957 18.028 354.805 18.396 354.709 18.812C354.613 19.228 354.553 19.672 354.529 20.144H354.601C354.721 19.952 354.873 19.78 355.057 19.628C355.241 19.476 355.461 19.356 355.717 19.268C355.981 19.18 356.285 19.136 356.629 19.136C357.125 19.136 357.557 19.24 357.925 19.448C358.301 19.648 358.593 19.944 358.801 20.336C359.009 20.72 359.113 21.188 359.113 21.74C359.113 22.332 359.001 22.844 358.777 23.276C358.553 23.708 358.237 24.04 357.829 24.272C357.429 24.504 356.949 24.62 356.389 24.62C355.981 24.62 355.601 24.544 355.249 24.392C354.897 24.24 354.585 24.008 354.312 23.696C354.049 23.384 353.841 22.992 353.689 22.52C353.545 22.04 353.473 21.48 353.473 20.84ZM356.377 23.732C356.881 23.732 357.289 23.572 357.601 23.252C357.913 22.924 358.069 22.42 358.069 21.74C358.069 21.196 357.929 20.764 357.649 20.444C357.377 20.124 356.965 19.964 356.413 19.964C356.037 19.964 355.709 20.044 355.429 20.204C355.149 20.356 354.929 20.552 354.769 20.792C354.617 21.032 354.541 21.28 354.541 21.536C354.541 21.8 354.577 22.06 354.649 22.316C354.729 22.572 354.845 22.808 354.997 23.024C355.157 23.24 355.349 23.412 355.573 23.54C355.805 23.668 356.073 23.732 356.377 23.732Z" fill="#525252"/>
</g>
<defs>
<clipPath id="clip0_22_18478">
<rect width="360" height="40" fill="white"/>
</clipPath>
</defs>
</svg>
