<svg width="112" height="24" viewBox="0 0 112 24" fill="none" xmlns="http://www.w3.org/2000/svg">
<path fill-rule="evenodd" clip-rule="evenodd" d="M9.2016 10.3037L6.14746 12.2135L13.4091 23.8263L14.355 23.2349L15.3006 23.8263L22.5626 12.2136L19.5085 10.3038L14.3549 18.5449L9.2016 10.3037Z" fill="url(#paint0_linear_61_8459)"/>
<rect x="5.60303" y="10.3037" width="3.60209" height="13.6963" fill="#BAAE8D"/>
<rect x="25.875" y="5.15186" width="3.60209" height="22.9948" transform="rotate(90 25.875 5.15186)" fill="#BAAE8D"/>
<rect x="28.1372" width="3.6021" height="27.5183" transform="rotate(90 28.1372 0)" fill="#BAAE8D"/>
<rect x="12.5557" y="12.2722" width="3.60209" height="11.7277" fill="#BAAE8D"/>
<rect x="19.5083" y="10.3037" width="3.60209" height="13.6963" fill="#BAAE8D"/>
<path d="M96.3181 23.7354L96.2319 22.8909L98.1795 22.4945L97.4039 23.2701C97.4154 23.2126 97.4441 23.1035 97.4901 22.9426C97.5475 22.7702 97.605 22.5749 97.6624 22.3566C97.7199 22.1383 97.7716 21.9372 97.8175 21.7534C97.8635 21.5581 97.8865 21.4144 97.8865 21.3225L98.3346 13.8081C98.3461 13.6817 98.3403 13.4921 98.3174 13.2394C98.3059 12.9866 98.2886 12.7281 98.2656 12.4638C98.2427 12.1995 98.2197 11.9927 98.1967 11.8433L98.8689 12.6017L96.8352 12.3087L96.9213 11.4125C97.1396 11.424 97.3809 11.4355 97.6452 11.4469C97.9095 11.4584 98.1565 11.4699 98.3863 11.4814C98.6276 11.4929 98.7999 11.4986 98.9033 11.4986H100.196L100.523 11.8606C100.638 12.1823 100.759 12.5327 100.885 12.9119C101.012 13.2911 101.127 13.63 101.23 13.9288C101.333 14.2275 101.402 14.4286 101.437 14.532L103.988 21.2363H103.557L106.142 14.4113C106.188 14.3194 106.263 14.1298 106.366 13.8426C106.469 13.5553 106.584 13.2279 106.711 12.8602C106.849 12.4925 106.969 12.1536 107.073 11.8433L107.417 11.4986H107.762C108.21 11.4986 108.664 11.4872 109.124 11.4642C109.595 11.4412 110.043 11.424 110.468 11.4125L110.537 12.3949L108.555 12.5672L109.158 12.0329C109.147 12.4925 109.135 12.9521 109.124 13.4117C109.112 13.8713 109.112 14.1815 109.124 14.3424L109.623 20.8055C109.635 20.8859 109.658 21.0353 109.692 21.2536C109.727 21.4604 109.767 21.6959 109.813 21.9602C109.87 22.213 109.922 22.46 109.968 22.7013C110.014 22.9426 110.054 23.1322 110.089 23.2701L109.365 22.5634L111.381 22.7358L111.261 23.6492H109.055C108.917 23.6492 108.71 23.655 108.434 23.6665C108.17 23.6779 107.888 23.6894 107.59 23.7009C107.291 23.7124 107.009 23.7239 106.745 23.7354L106.659 22.8909L108.589 22.4945L107.883 23.2701C107.906 23.1666 107.934 22.9886 107.969 22.7358C108.015 22.4715 108.049 22.2072 108.072 21.943C108.107 21.6672 108.118 21.4604 108.107 21.3225L107.572 12.9119L107.814 12.9464L103.781 23.6492H103.229L99.1963 12.9464L99.4376 12.9119L98.9895 20.8055C98.978 20.9434 98.978 21.1387 98.9895 21.3915C99.001 21.6327 99.0125 21.8855 99.024 22.1498C99.047 22.4141 99.0699 22.6496 99.0929 22.8564C99.1159 23.0632 99.1331 23.2011 99.1446 23.2701L98.4897 22.5634L100.489 22.7358L100.368 23.6492H98.4035C98.2886 23.6492 98.1105 23.655 97.8692 23.6665C97.628 23.6779 97.3637 23.6894 97.0764 23.7009C96.8007 23.7124 96.5479 23.7239 96.3181 23.7354Z" fill="#4E493B"/>
<path d="M88.6277 23.9077C87.1684 23.9077 86.0712 23.4711 85.3358 22.5979C84.6005 21.7132 84.2328 20.5355 84.2328 19.0648V13.9115C84.2328 13.7851 84.2155 13.5956 84.1811 13.3428C84.1466 13.0785 84.1064 12.8085 84.0604 12.5327C84.026 12.257 83.9915 12.0444 83.957 11.8951L84.6636 12.6017L82.6816 12.3087L82.7678 11.4125C82.9861 11.424 83.2274 11.4355 83.4917 11.4469C83.7559 11.4584 84.003 11.4699 84.2328 11.4814C84.4741 11.4929 84.6464 11.4986 84.7498 11.4986C84.9566 11.4986 85.2152 11.4929 85.5254 11.4814C85.8471 11.4699 86.1631 11.4584 86.4733 11.4469C86.7835 11.4355 87.0306 11.424 87.2144 11.4125L87.2833 12.3949L85.3186 12.5672L85.9563 11.8951C85.9448 12.0214 85.9218 12.2283 85.8873 12.5155C85.8643 12.8028 85.8414 13.1187 85.8184 13.4634C85.7954 13.8081 85.7839 14.1298 85.7839 14.4286V19.0648C85.7839 19.8001 85.8931 20.455 86.1114 21.0295C86.3297 21.604 86.6629 22.0579 87.111 22.3911C87.5591 22.7128 88.1164 22.8737 88.7828 22.8737C89.4837 22.8737 90.0582 22.7071 90.5063 22.3738C90.9659 22.0406 91.3106 21.5868 91.5404 21.0123C91.7702 20.4378 91.8851 19.7886 91.8851 19.0648V13.9115C91.8851 13.8196 91.8736 13.676 91.8506 13.4807C91.8276 13.2853 91.7989 13.0785 91.7644 12.8602C91.7299 12.6304 91.6955 12.4293 91.661 12.257C91.638 12.0731 91.6208 11.9525 91.6093 11.8951L92.3676 12.6189L90.3512 12.3087L90.4373 11.4125C90.759 11.424 91.098 11.4412 91.4542 11.4642C91.8104 11.4872 92.0746 11.4986 92.247 11.4986C92.6147 11.4986 92.9996 11.4872 93.4017 11.4642C93.8039 11.4412 94.1658 11.424 94.4875 11.4125L94.5565 12.3949L92.5917 12.5672L93.2294 11.8951C93.2179 12.0214 93.1949 12.2283 93.1604 12.5155C93.1375 12.8028 93.1145 13.1187 93.0915 13.4634C93.0685 13.8081 93.057 14.1298 93.057 14.4286V19.0648C93.057 20.5355 92.6836 21.7132 91.9368 22.5979C91.2014 23.4711 90.0984 23.9077 88.6277 23.9077Z" fill="#4E493B"/>
<path d="M72.1174 23.7354L72.0312 22.8909L73.996 22.4945L73.3066 23.2528C73.3296 23.1264 73.3583 22.9369 73.3928 22.6841C73.4388 22.4198 73.479 22.1555 73.5134 21.8913C73.5479 21.627 73.5652 21.4374 73.5652 21.3225V13.8254C73.5652 13.7219 73.5479 13.5611 73.5134 13.3428C73.4905 13.113 73.4617 12.8717 73.4273 12.6189C73.3928 12.3546 73.3583 12.1134 73.3239 11.8951L73.996 12.6189L72.0657 12.3087L72.1519 11.4125C72.3702 11.424 72.6115 11.4355 72.8758 11.4469C73.14 11.4584 73.3871 11.4699 73.6169 11.4814C73.8581 11.4929 74.0305 11.4986 74.1339 11.4986H77.9773C78.0807 11.4986 78.2473 11.4986 78.4771 11.4986C78.7069 11.4872 78.9539 11.4757 79.2182 11.4642C79.4825 11.4412 79.7237 11.424 79.9421 11.4125L80.2695 11.7227L80.3902 13.9632L79.4078 14.0494L79.2182 13.1015C79.2067 13.0096 79.1263 12.8659 78.9769 12.6706C78.8275 12.4753 78.6897 12.3202 78.5633 12.2053L79.132 12.5327C78.9597 12.5098 78.7126 12.4868 78.3909 12.4638C78.0807 12.4408 77.7705 12.4293 77.4602 12.4293H74.5992L75.2369 11.9812C75.214 12.2455 75.1852 12.5327 75.1508 12.843C75.1163 13.1532 75.0876 13.4462 75.0646 13.7219C75.0531 13.9862 75.0474 14.193 75.0474 14.3424V20.8055C75.0474 21.0927 75.0588 21.4087 75.0818 21.7534C75.1048 22.0981 75.1335 22.4198 75.168 22.7185C75.2025 23.0173 75.2369 23.2528 75.2714 23.4252L74.5648 22.7013H77.6843C78.029 22.7013 78.3679 22.6783 78.7011 22.6324C79.0458 22.5749 79.2929 22.529 79.4422 22.4945L78.9252 22.9081C79.0516 22.7473 79.1837 22.5749 79.3216 22.3911C79.4595 22.1958 79.5399 22.0406 79.5629 21.9257L79.8214 20.7538L80.7521 20.8399L80.4936 23.4079L80.1661 23.7182C79.9478 23.7067 79.7008 23.6952 79.425 23.6837C79.1607 23.6722 78.9137 23.6607 78.6839 23.6492C78.4656 23.6492 78.3047 23.6492 78.2013 23.6492H74.4269C74.289 23.6492 74.0879 23.6492 73.8237 23.6492C73.5594 23.6607 73.2722 23.6722 72.9619 23.6837C72.6632 23.6952 72.3817 23.7124 72.1174 23.7354ZM78.3047 19.0648L78.0635 17.2723L78.6839 17.979C78.5575 17.956 78.3679 17.933 78.1152 17.91C77.8739 17.8755 77.6211 17.8468 77.3568 17.8238C77.104 17.8009 76.903 17.7894 76.7536 17.7894H74.5648V16.8587H77.0983C77.3396 16.8587 77.6211 16.8357 77.9428 16.7898C78.2645 16.7323 78.4828 16.6978 78.5977 16.6863L78.0635 17.3757L78.3047 15.5661L79.0631 15.6523V17.1C79.0631 17.7204 79.0803 18.3409 79.1148 18.9613L78.3047 19.0648Z" fill="#4E493B"/>
<path d="M65.814 23.9079C64.9752 23.9079 64.2169 23.8044 63.539 23.5976C62.8611 23.3908 62.3613 23.1897 62.0396 22.9944L62.2981 20.3919L63.4183 20.4954V21.2882C63.4183 21.3456 63.4241 21.4433 63.4356 21.5811C63.4586 21.7075 63.4815 21.8512 63.5045 22.012C63.5275 22.1614 63.5505 22.305 63.5735 22.4429C63.6079 22.5693 63.6366 22.6669 63.6596 22.7359L63.3494 22.3395C63.6481 22.4889 64.0158 22.6267 64.4524 22.7531C64.9005 22.868 65.3716 22.9255 65.8657 22.9255C66.5781 22.9255 67.1411 22.7359 67.5547 22.3567C67.9683 21.9661 68.1752 21.4203 68.1752 20.7194C68.1752 20.2368 68.0315 19.8347 67.7443 19.513C67.457 19.1798 67.0894 18.8868 66.6413 18.634C66.1932 18.3697 65.7163 18.1169 65.2108 17.8757C64.7167 17.6344 64.2456 17.3644 63.7975 17.0656C63.3494 16.7554 62.9817 16.3877 62.6945 15.9626C62.4072 15.5375 62.2636 15.0204 62.2636 14.4114C62.2636 13.7221 62.4245 13.1418 62.7462 12.6707C63.0794 12.1996 63.5275 11.8435 64.0905 11.6022C64.6535 11.3609 65.2854 11.2402 65.9863 11.2402C66.5493 11.2402 67.1296 11.2977 67.7271 11.4126C68.3245 11.5275 68.899 11.6539 69.4505 11.7917L69.2093 14.3425L68.2096 14.2219V13.498C68.2096 13.4176 68.1924 13.2969 68.1579 13.1361C68.1235 12.9637 68.0832 12.7856 68.0373 12.6018C67.9913 12.4065 67.9454 12.2341 67.8994 12.0847L68.382 12.7224C67.8879 12.4582 67.4685 12.2973 67.1238 12.2399C66.7791 12.1709 66.3712 12.1364 65.9002 12.1364C65.3716 12.1364 64.9063 12.3031 64.5041 12.6363C64.1135 12.958 63.9182 13.4406 63.9182 14.084C63.9182 14.5436 64.0618 14.9342 64.349 15.256C64.6363 15.5662 65.0097 15.8534 65.4693 16.1177C65.9289 16.3705 66.4115 16.6233 66.917 16.876C67.4226 17.1288 67.9051 17.4161 68.3647 17.7378C68.8243 18.0595 69.1978 18.4444 69.485 18.8925C69.7723 19.3406 69.9159 19.8921 69.9159 20.5471C69.9159 21.3054 69.732 21.9316 69.3644 22.4257C68.9967 22.9197 68.5026 23.2931 67.8822 23.5459C67.2617 23.7872 66.5723 23.9079 65.814 23.9079Z" fill="#4E493B"/>
<path d="M54.0901 23.9077C52.6309 23.9077 51.5336 23.4711 50.7982 22.5979C50.0629 21.7132 49.6952 20.5355 49.6952 19.0648V13.9115C49.6952 13.7851 49.6779 13.5956 49.6435 13.3428C49.609 13.0785 49.5688 12.8085 49.5228 12.5327C49.4884 12.257 49.4539 12.0444 49.4194 11.8951L50.1261 12.6017L48.144 12.3087L48.2302 11.4125C48.4485 11.424 48.6898 11.4355 48.9541 11.4469C49.2183 11.4584 49.4654 11.4699 49.6952 11.4814C49.9365 11.4929 50.1088 11.4986 50.2122 11.4986C50.419 11.4986 50.6776 11.4929 50.9878 11.4814C51.3095 11.4699 51.6255 11.4584 51.9357 11.4469C52.2459 11.4355 52.493 11.424 52.6768 11.4125L52.7458 12.3949L50.781 12.5672L51.4187 11.8951C51.4072 12.0214 51.3842 12.2283 51.3497 12.5155C51.3267 12.8028 51.3038 13.1187 51.2808 13.4634C51.2578 13.8081 51.2463 14.1298 51.2463 14.4286V19.0648C51.2463 19.8001 51.3555 20.455 51.5738 21.0295C51.7921 21.604 52.1253 22.0579 52.5734 22.3911C53.0215 22.7128 53.5788 22.8737 54.2452 22.8737C54.9461 22.8737 55.5206 22.7071 55.9687 22.3738C56.4283 22.0406 56.773 21.5868 57.0028 21.0123C57.2326 20.4378 57.3475 19.7886 57.3475 19.0648V13.9115C57.3475 13.8196 57.336 13.676 57.313 13.4807C57.29 13.2853 57.2613 13.0785 57.2268 12.8602C57.1923 12.6304 57.1579 12.4293 57.1234 12.257C57.1004 12.0731 57.0832 11.9525 57.0717 11.8951L57.83 12.6189L55.8136 12.3087L55.8997 11.4125C56.2214 11.424 56.5604 11.4412 56.9166 11.4642C57.2728 11.4872 57.537 11.4986 57.7094 11.4986C58.0771 11.4986 58.462 11.4872 58.8641 11.4642C59.2663 11.4412 59.6282 11.424 59.9499 11.4125L60.0189 12.3949L58.0541 12.5672L58.6918 11.8951C58.6803 12.0214 58.6573 12.2283 58.6228 12.5155C58.5999 12.8028 58.5769 13.1187 58.5539 13.4634C58.5309 13.8081 58.5194 14.1298 58.5194 14.4286V19.0648C58.5194 20.5355 58.146 21.7132 57.3992 22.5979C56.6638 23.4711 55.5608 23.9077 54.0901 23.9077Z" fill="#4E493B"/>
<path d="M31.4348 23.7354L31.3486 22.8909L33.2962 22.4945L32.5206 23.2701C32.5321 23.2126 32.5608 23.1035 32.6068 22.9426C32.6642 22.7702 32.7217 22.5749 32.7791 22.3566C32.8366 22.1383 32.8883 21.9372 32.9342 21.7534C32.9802 21.5581 33.0032 21.4144 33.0032 21.3225L33.4513 13.8081C33.4628 13.6817 33.457 13.4921 33.4341 13.2394C33.4226 12.9866 33.4053 12.7281 33.3823 12.4638C33.3594 12.1995 33.3364 11.9927 33.3134 11.8433L33.9856 12.6017L31.9519 12.3087L32.038 11.4125C32.2563 11.424 32.4976 11.4355 32.7619 11.4469C33.0262 11.4584 33.2732 11.4699 33.503 11.4814C33.7443 11.4929 33.9166 11.4986 34.02 11.4986H35.3127L35.6401 11.8606C35.755 12.1823 35.8757 12.5327 36.002 12.9119C36.1284 13.2911 36.2433 13.63 36.3467 13.9288C36.4502 14.2275 36.5191 14.4286 36.5536 14.532L39.1043 21.2363H38.6734L41.2587 14.4113C41.3046 14.3194 41.3793 14.1298 41.4827 13.8426C41.5861 13.5553 41.701 13.2279 41.8274 12.8602C41.9653 12.4925 42.0859 12.1536 42.1894 11.8433L42.5341 11.4986H42.8788C43.3269 11.4986 43.7807 11.4872 44.2403 11.4642C44.7114 11.4412 45.1595 11.424 45.5846 11.4125L45.6536 12.3949L43.6716 12.5672L44.2748 12.0329C44.2633 12.4925 44.2518 12.9521 44.2403 13.4117C44.2288 13.8713 44.2288 14.1815 44.2403 14.3424L44.7401 20.8055C44.7516 20.8859 44.7746 21.0353 44.8091 21.2536C44.8435 21.4604 44.8837 21.6959 44.9297 21.9602C44.9872 22.213 45.0389 22.46 45.0848 22.7013C45.1308 22.9426 45.171 23.1322 45.2055 23.2701L44.4816 22.5634L46.4981 22.7358L46.3774 23.6492H44.1714C44.0335 23.6492 43.8267 23.655 43.5509 23.6665C43.2866 23.6779 43.0051 23.6894 42.7064 23.7009C42.4077 23.7124 42.1262 23.7239 41.8619 23.7354L41.7757 22.8909L43.706 22.4945L42.9994 23.2701C43.0224 23.1666 43.0511 22.9886 43.0856 22.7358C43.1315 22.4715 43.166 22.2072 43.189 21.943C43.2235 21.6672 43.2349 21.4604 43.2235 21.3225L42.6892 12.9119L42.9305 12.9464L38.8975 23.6492H38.346L34.313 12.9464L34.5543 12.9119L34.1062 20.8055C34.0947 20.9434 34.0947 21.1387 34.1062 21.3915C34.1177 21.6327 34.1292 21.8855 34.1407 22.1498C34.1637 22.4141 34.1866 22.6496 34.2096 22.8564C34.2326 23.0632 34.2498 23.2011 34.2613 23.2701L33.6064 22.5634L35.6056 22.7358L35.485 23.6492H33.5202C33.4053 23.6492 33.2272 23.655 32.9859 23.6665C32.7447 23.6779 32.4804 23.6894 32.1931 23.7009C31.9174 23.7124 31.6646 23.7239 31.4348 23.7354Z" fill="#4E493B"/>
<defs>
<linearGradient id="paint0_linear_61_8459" x1="14.3551" y1="10.3037" x2="14.3551" y2="23.8263" gradientUnits="userSpaceOnUse">
<stop stop-color="#BAAE8D" stop-opacity="0.76"/>
<stop offset="1" stop-color="#BAAE8D" stop-opacity="0"/>
</linearGradient>
</defs>
</svg>
