<svg width="110" height="24" viewBox="0 0 110 24" fill="none" xmlns="http://www.w3.org/2000/svg">
<path fill-rule="evenodd" clip-rule="evenodd" d="M21.8713 12.1698L18.8282 10.2667L13.6929 18.4784L8.5581 10.2668L5.51489 12.1698L12.7506 23.7411L13.6931 23.1517L14.6353 23.7408L21.8713 12.1698Z" fill="url(#paint0_linear_199_21751)"/>
<rect x="4.97266" y="10.2667" width="3.58921" height="13.6473" fill="#BAAE8D"/>
<rect x="25.1721" y="5.13342" width="3.58921" height="22.9125" transform="rotate(90 25.1721 5.13342)" fill="#BAAE8D"/>
<rect x="27.4258" width="3.58921" height="27.4199" transform="rotate(90 27.4258 0)" fill="#BAAE8D"/>
<rect x="11.9004" y="12.2284" width="3.58921" height="11.6858" fill="#BAAE8D"/>
<rect x="18.8286" y="10.2667" width="3.58921" height="13.6473" fill="#BAAE8D"/>
<path d="M94.9845 23.8283L94.8987 22.9868L96.8393 22.5918L96.0665 23.3646C96.0779 23.3074 96.1065 23.1986 96.1523 23.0383C96.2096 22.8666 96.2668 22.6719 96.3241 22.4544C96.3813 22.2369 96.4328 22.0365 96.4786 21.8534C96.5244 21.6587 96.5473 21.5156 96.5473 21.424L96.9938 13.9365C97.0053 13.8106 96.9995 13.6217 96.9766 13.3698C96.9652 13.1179 96.948 12.8603 96.9251 12.597C96.9022 12.3337 96.8793 12.1276 96.8564 11.9788L97.5262 12.7344L95.4997 12.4424L95.5856 11.5494C95.8031 11.5609 96.0436 11.5723 96.3069 11.5838C96.5702 11.5952 96.8164 11.6067 97.0453 11.6181C97.2858 11.6296 97.4575 11.6353 97.5605 11.6353H98.8485L99.1748 11.9959C99.2893 12.3165 99.4095 12.6657 99.5354 13.0435C99.6614 13.4213 99.7759 13.7591 99.8789 14.0567C99.9819 14.3544 100.051 14.5547 100.085 14.6578L102.627 21.3382H102.197L104.773 14.5376C104.819 14.446 104.893 14.2571 104.997 13.9709C105.1 13.6846 105.214 13.3583 105.34 12.992C105.477 12.6256 105.598 12.2879 105.701 11.9788L106.044 11.6353H106.388C106.834 11.6353 107.286 11.6239 107.744 11.601C108.214 11.5781 108.66 11.5609 109.084 11.5494L109.152 12.5283L107.178 12.7L107.779 12.1677C107.767 12.6256 107.756 13.0836 107.744 13.5415C107.733 13.9995 107.733 14.3086 107.744 14.4689L108.242 20.9088C108.254 20.989 108.277 21.1378 108.311 21.3553C108.345 21.5614 108.385 21.7961 108.431 22.0594C108.488 22.3113 108.54 22.5575 108.586 22.7979C108.632 23.0383 108.672 23.2272 108.706 23.3646L107.985 22.6605L109.994 22.8322L109.874 23.7424H107.676C107.538 23.7424 107.332 23.7481 107.057 23.7596C106.794 23.771 106.513 23.7825 106.216 23.7939C105.918 23.8054 105.638 23.8168 105.374 23.8283L105.288 22.9868L107.212 22.5918L106.508 23.3646C106.531 23.2616 106.559 23.0841 106.594 22.8322C106.639 22.5689 106.674 22.3056 106.697 22.0423C106.731 21.7675 106.742 21.5614 106.731 21.424L106.199 13.0435L106.439 13.0779L102.421 23.7424H101.871L97.8525 13.0779L98.0929 13.0435L97.6464 20.9088C97.6349 21.0462 97.6349 21.2408 97.6464 21.4927C97.6578 21.7331 97.6693 21.985 97.6807 22.2483C97.7036 22.5117 97.7265 22.7464 97.7494 22.9524C97.7723 23.1585 97.7895 23.2959 97.8009 23.3646L97.1484 22.6605L99.1405 22.8322L99.0202 23.7424H97.0625C96.948 23.7424 96.7706 23.7481 96.5301 23.7596C96.2897 23.771 96.0264 23.7825 95.7402 23.7939C95.4654 23.8054 95.2135 23.8168 94.9845 23.8283Z" fill="#F8F7F4"/>
<path d="M87.3212 24C85.8672 24 84.7739 23.565 84.0412 22.6948C83.3084 21.8133 82.9421 20.6398 82.9421 19.1743V14.0396C82.9421 13.9136 82.9249 13.7247 82.8906 13.4728C82.8562 13.2095 82.8161 12.9405 82.7703 12.6657C82.736 12.3909 82.7016 12.1791 82.6673 12.0303L83.3714 12.7344L81.3965 12.4424L81.4824 11.5494C81.6999 11.5609 81.9403 11.5723 82.2036 11.5838C82.4669 11.5952 82.7131 11.6067 82.9421 11.6181C83.1825 11.6296 83.3542 11.6353 83.4573 11.6353C83.6633 11.6353 83.9209 11.6296 84.2301 11.6181C84.5506 11.6067 84.8655 11.5952 85.1746 11.5838C85.4837 11.5723 85.7299 11.5609 85.913 11.5494L85.9817 12.5283L84.024 12.7L84.6594 12.0303C84.6479 12.1562 84.625 12.3623 84.5907 12.6485C84.5678 12.9347 84.5449 13.2496 84.522 13.593C84.4991 13.9365 84.4877 14.2571 84.4877 14.5547V19.1743C84.4877 19.9071 84.5964 20.5596 84.814 21.1321C85.0315 21.7045 85.3635 22.1567 85.81 22.4888C86.2565 22.8093 86.8118 22.9696 87.4758 22.9696C88.1742 22.9696 88.7466 22.8036 89.1931 22.4716C89.6511 22.1396 89.9945 21.6873 90.2235 21.1149C90.4525 20.5425 90.567 19.8956 90.567 19.1743V14.0396C90.567 13.948 90.5555 13.8049 90.5326 13.6102C90.5097 13.4156 90.4811 13.2095 90.4468 12.992C90.4124 12.763 90.3781 12.5627 90.3437 12.3909C90.3208 12.2077 90.3036 12.0875 90.2922 12.0303L91.0478 12.7516L89.0386 12.4424L89.1244 11.5494C89.445 11.5609 89.7827 11.5781 90.1376 11.601C90.4926 11.6239 90.7559 11.6353 90.9276 11.6353C91.294 11.6353 91.6775 11.6239 92.0782 11.601C92.4789 11.5781 92.8396 11.5609 93.1601 11.5494L93.2288 12.5283L91.2711 12.7L91.9065 12.0303C91.895 12.1562 91.8721 12.3623 91.8378 12.6485C91.8149 12.9347 91.792 13.2496 91.7691 13.593C91.7462 13.9365 91.7347 14.2571 91.7347 14.5547V19.1743C91.7347 20.6398 91.3627 21.8133 90.6185 22.6948C89.8858 23.565 88.7867 24 87.3212 24Z" fill="#F8F7F4"/>
<path d="M70.8708 23.8283L70.7849 22.9868L72.7427 22.5918L72.0557 23.3474C72.0786 23.2215 72.1072 23.0326 72.1416 22.7807C72.1874 22.5174 72.2275 22.2541 72.2618 21.9907C72.2962 21.7274 72.3133 21.5385 72.3133 21.424V13.9537C72.3133 13.8506 72.2962 13.6904 72.2618 13.4728C72.2389 13.2439 72.2103 13.0034 72.1759 12.7516C72.1416 12.4882 72.1072 12.2478 72.0729 12.0303L72.7427 12.7516L70.8193 12.4424L70.9051 11.5494C71.1227 11.5609 71.3631 11.5723 71.6264 11.5838C71.8897 11.5952 72.1359 11.6067 72.3648 11.6181C72.6053 11.6296 72.777 11.6353 72.88 11.6353H76.7097C76.8127 11.6353 76.9787 11.6353 77.2077 11.6353C77.4367 11.6239 77.6828 11.6124 77.9461 11.601C78.2095 11.5781 78.4499 11.5609 78.6674 11.5494L78.9937 11.8586L79.1139 14.0911L78.135 14.1769L77.9461 13.2324C77.9347 13.1408 77.8545 12.9977 77.7057 12.8031C77.5569 12.6085 77.4195 12.4539 77.2936 12.3394L77.8603 12.6657C77.6885 12.6428 77.4424 12.6199 77.1218 12.597C76.8127 12.5741 76.5036 12.5627 76.1945 12.5627H73.3437L73.9791 12.1162C73.9562 12.3795 73.9276 12.6657 73.8933 12.9748C73.8589 13.2839 73.8303 13.5759 73.8074 13.8506C73.7959 14.114 73.7902 14.32 73.7902 14.4689V20.9088C73.7902 21.1951 73.8017 21.5099 73.8246 21.8534C73.8475 22.1968 73.8761 22.5174 73.9104 22.8151C73.9448 23.1127 73.9791 23.3474 74.0135 23.5192L73.3094 22.7979H76.4177C76.7612 22.7979 77.0989 22.775 77.4309 22.7292C77.7744 22.6719 78.0206 22.6261 78.1694 22.5918L77.6542 23.004C77.7801 22.8437 77.9118 22.6719 78.0492 22.4888C78.1866 22.2941 78.2667 22.1396 78.2896 22.0251L78.5472 20.8573L79.4746 20.9432L79.217 23.502L78.8907 23.8111C78.6731 23.7997 78.427 23.7882 78.1522 23.7768C77.8889 23.7653 77.6427 23.7539 77.4138 23.7424C77.1962 23.7424 77.036 23.7424 76.9329 23.7424H73.172C73.0346 23.7424 72.8342 23.7424 72.5709 23.7424C72.3076 23.7539 72.0214 23.7653 71.7123 23.7768C71.4146 23.7882 71.1341 23.8054 70.8708 23.8283ZM77.036 19.1743L76.7955 17.3883L77.4138 18.0924C77.2878 18.0695 77.0989 18.0466 76.8471 18.0237C76.6066 17.9894 76.3548 17.9608 76.0914 17.9379C75.8396 17.915 75.6392 17.9035 75.4904 17.9035H73.3094V16.9762H75.8338C76.0743 16.9762 76.3548 16.9533 76.6753 16.9075C76.9959 16.8502 77.2134 16.8159 77.3279 16.8044L76.7955 17.4914L77.036 15.6882L77.7916 15.774V17.2166C77.7916 17.8348 77.8087 18.4531 77.8431 19.0713L77.036 19.1743Z" fill="#F8F7F4"/>
<path d="M64.5893 24C63.7535 24 62.9979 23.8969 62.3224 23.6909C61.647 23.4848 61.1489 23.2844 60.8284 23.0898L61.086 20.4967L62.2022 20.5997V21.3897C62.2022 21.4469 62.2079 21.5442 62.2194 21.6816C62.2423 21.8075 62.2652 21.9506 62.2881 22.1109C62.311 22.2598 62.3339 22.4029 62.3568 22.5403C62.3911 22.6662 62.4198 22.7635 62.4427 22.8322L62.1335 22.4372C62.4312 22.5861 62.7976 22.7234 63.2326 22.8494C63.6791 22.9639 64.1485 23.0211 64.6408 23.0211C65.3506 23.0211 65.9116 22.8322 66.3238 22.4544C66.7359 22.0651 66.942 21.5213 66.942 20.8229C66.942 20.3421 66.7989 19.9414 66.5127 19.6208C66.2265 19.2888 65.8601 18.9969 65.4136 18.745C64.9671 18.4817 64.492 18.2298 63.9882 17.9894C63.4959 17.7489 63.0265 17.4799 62.58 17.1822C62.1335 16.8731 61.7672 16.5067 61.481 16.0831C61.1947 15.6595 61.0516 15.1443 61.0516 14.5376C61.0516 13.8506 61.2119 13.2725 61.5325 12.8031C61.8645 12.3337 62.311 11.9787 62.872 11.7383C63.433 11.4979 64.0627 11.3777 64.761 11.3777C65.322 11.3777 65.9002 11.4349 66.4955 11.5494C67.0909 11.6639 67.6633 11.7898 68.2128 11.9272L67.9724 14.4689L66.9764 14.3486V13.6274C66.9764 13.5472 66.9592 13.427 66.9249 13.2667C66.8905 13.095 66.8504 12.9175 66.8046 12.7344C66.7588 12.5397 66.7131 12.368 66.6673 12.2192L67.1481 12.8546C66.6558 12.5913 66.2379 12.431 65.8945 12.3737C65.551 12.305 65.1446 12.2707 64.6752 12.2707C64.1485 12.2707 63.6848 12.4367 63.2841 12.7687C62.8949 13.0893 62.7002 13.5701 62.7002 14.2113C62.7002 14.6692 62.8434 15.0585 63.1296 15.379C63.4158 15.6882 63.7879 15.9744 64.2458 16.2377C64.7038 16.4896 65.1846 16.7414 65.6884 16.9933C66.1921 17.2452 66.673 17.5314 67.1309 17.852C67.5889 18.1725 67.961 18.5561 68.2472 19.0026C68.5334 19.4491 68.6765 19.9986 68.6765 20.6512C68.6765 21.4068 68.4933 22.0308 68.127 22.5231C67.7606 23.0154 67.2683 23.3875 66.6501 23.6393C66.0318 23.8798 65.3449 24 64.5893 24Z" fill="#F8F7F4"/>
<path d="M52.9079 24C51.4539 24 50.3605 23.565 49.6278 22.6948C48.8951 21.8133 48.5287 20.6398 48.5287 19.1743V14.0396C48.5287 13.9136 48.5116 13.7247 48.4772 13.4728C48.4429 13.2095 48.4028 12.9405 48.357 12.6657C48.3227 12.3909 48.2883 12.1791 48.254 12.0303L48.9581 12.7344L46.9832 12.4424L47.069 11.5494C47.2865 11.5609 47.527 11.5723 47.7903 11.5838C48.0536 11.5952 48.2998 11.6067 48.5287 11.6181C48.7692 11.6296 48.9409 11.6353 49.0439 11.6353C49.25 11.6353 49.5076 11.6296 49.8167 11.6181C50.1373 11.6067 50.4521 11.5952 50.7613 11.5838C51.0704 11.5723 51.3165 11.5609 51.4997 11.5494L51.5684 12.5283L49.6107 12.7L50.2461 12.0303C50.2346 12.1562 50.2117 12.3623 50.1774 12.6485C50.1545 12.9347 50.1316 13.2496 50.1087 13.593C50.0858 13.9365 50.0743 14.2571 50.0743 14.5547V19.1743C50.0743 19.9071 50.1831 20.5596 50.4006 21.1321C50.6181 21.7045 50.9502 22.1567 51.3967 22.4888C51.8432 22.8093 52.3984 22.9696 53.0625 22.9696C53.7608 22.9696 54.3333 22.8036 54.7798 22.4716C55.2377 22.1396 55.5812 21.6873 55.8102 21.1149C56.0392 20.5425 56.1536 19.8956 56.1536 19.1743V14.0396C56.1536 13.948 56.1422 13.8049 56.1193 13.6102C56.0964 13.4156 56.0678 13.2095 56.0334 12.992C55.9991 12.763 55.9647 12.5627 55.9304 12.3909C55.9075 12.2077 55.8903 12.0875 55.8789 12.0303L56.6345 12.7516L54.6252 12.4424L54.7111 11.5494C55.0317 11.5609 55.3694 11.5781 55.7243 11.601C56.0792 11.6239 56.3425 11.6353 56.5143 11.6353C56.8806 11.6353 57.2642 11.6239 57.6649 11.601C58.0656 11.5781 58.4262 11.5609 58.7468 11.5494L58.8155 12.5283L56.8577 12.7L57.4932 12.0303C57.4817 12.1562 57.4588 12.3623 57.4245 12.6485C57.4016 12.9347 57.3787 13.2496 57.3558 13.593C57.3329 13.9365 57.3214 14.2571 57.3214 14.5547V19.1743C57.3214 20.6398 56.9493 21.8133 56.2052 22.6948C55.4724 23.565 54.3734 24 52.9079 24Z" fill="#F8F7F4"/>
<path d="M30.3166 23.8283L30.2307 22.9868L32.1713 22.5918L31.3985 23.3646C31.4099 23.3074 31.4386 23.1986 31.4844 23.0383C31.5416 22.8666 31.5988 22.6719 31.6561 22.4544C31.7133 22.2369 31.7649 22.0365 31.8106 21.8534C31.8564 21.6587 31.8793 21.5156 31.8793 21.424L32.3258 13.9365C32.3373 13.8106 32.3316 13.6217 32.3087 13.3698C32.2972 13.1179 32.28 12.8603 32.2572 12.597C32.2343 12.3337 32.2114 12.1276 32.1885 11.9788L32.8582 12.7344L30.8318 12.4424L30.9176 11.5494C31.1352 11.5609 31.3756 11.5723 31.6389 11.5838C31.9022 11.5952 32.1484 11.6067 32.3774 11.6181C32.6178 11.6296 32.7895 11.6353 32.8926 11.6353H34.1805L34.5068 11.9959C34.6213 12.3165 34.7415 12.6657 34.8675 13.0435C34.9934 13.4213 35.1079 13.7591 35.2109 14.0567C35.314 14.3544 35.3827 14.5547 35.417 14.6578L37.9587 21.3382H37.5293L40.1053 14.5376C40.1511 14.446 40.2255 14.2571 40.3286 13.9709C40.4316 13.6846 40.5461 13.3583 40.672 12.992C40.8094 12.6256 40.9296 12.2879 41.0327 11.9788L41.3761 11.6353H41.7196C42.1661 11.6353 42.6183 11.6239 43.0763 11.601C43.5457 11.5781 43.9922 11.5609 44.4158 11.5494L44.4845 12.5283L42.5095 12.7L43.1106 12.1677C43.0992 12.6256 43.0877 13.0836 43.0763 13.5415C43.0648 13.9995 43.0648 14.3086 43.0763 14.4689L43.5743 20.9088C43.5857 20.989 43.6086 21.1378 43.643 21.3553C43.6773 21.5614 43.7174 21.7961 43.7632 22.0594C43.8204 22.3113 43.872 22.5575 43.9178 22.7979C43.9635 23.0383 44.0036 23.2272 44.038 23.3646L43.3167 22.6605L45.326 22.8322L45.2057 23.7424H43.0076C42.8702 23.7424 42.6641 23.7481 42.3893 23.7596C42.126 23.771 41.8455 23.7825 41.5478 23.7939C41.2502 23.8054 40.9697 23.8168 40.7064 23.8283L40.6205 22.9868L42.5439 22.5918L41.8398 23.3646C41.8627 23.2616 41.8913 23.0841 41.9257 22.8322C41.9715 22.5689 42.0058 22.3056 42.0287 22.0423C42.063 21.7675 42.0745 21.5614 42.063 21.424L41.5307 13.0435L41.7711 13.0779L37.7526 23.7424H37.203L33.1845 13.0779L33.4249 13.0435L32.9784 20.9088C32.967 21.0462 32.967 21.2408 32.9784 21.4927C32.9899 21.7331 33.0013 21.985 33.0128 22.2483C33.0357 22.5117 33.0586 22.7464 33.0815 22.9524C33.1044 23.1585 33.1215 23.2959 33.133 23.3646L32.4804 22.6605L34.4725 22.8322L34.3523 23.7424H32.3945C32.28 23.7424 32.1026 23.7481 31.8622 23.7596C31.6217 23.771 31.3584 23.7825 31.0722 23.7939C30.7974 23.8054 30.5456 23.8168 30.3166 23.8283Z" fill="#F8F7F4"/>
<defs>
<linearGradient id="paint0_linear_199_21751" x1="13.6932" y1="10.2667" x2="13.6932" y2="23.7409" gradientUnits="userSpaceOnUse">
<stop stop-color="#BAAE8D" stop-opacity="0.76"/>
<stop offset="1" stop-color="#BAAE8D" stop-opacity="0"/>
</linearGradient>
</defs>
</svg>
