<?xml version="1.0" encoding="UTF-8"?>
<!DOCTYPE svg PUBLIC "-//W3C//DTD SVG 1.1//EN" "http://www.w3.org/Graphics/SVG/1.1/DTD/svg11.dtd">
<!-- Creator: CorelDRAW X8 -->
<svg xmlns="http://www.w3.org/2000/svg" xml:space="preserve" width="858.9mm" height="111.4mm" version="1.1" style="shape-rendering:geometricPrecision; text-rendering:geometricPrecision; image-rendering:optimizeQuality; fill-rule:evenodd; clip-rule:evenodd"
viewBox="0 0 85890 11140"
 xmlns:xlink="http://www.w3.org/1999/xlink">
 <defs>
  <style type="text/css">
   <![CDATA[
    .str0 {stroke:#BAAE8D;stroke-width:20;stroke-opacity:0.501961}
    .str1 {stroke:#4E493B;stroke-width:20}
    .str2 {stroke:#BAAE8D;stroke-width:20}
    .fil1 {fill:#4E493B}
    .fil2 {fill:#BAAE8D}
    .fil0 {fill:#BAAE8D;fill-opacity:0.501961}
   ]]>
  </style>
 </defs>
 <g id="Camada_x0020_1">
  <metadata id="CorelCorpID_0Corel-Layer"/>
  <g id="_2065985162368">
   <polygon class="fil0 str0" points="35296,3525 38280,3525 38280,10913 35296,10913 "/>
   <path class="fil1 str1" d="M2 10876c178,1 356,3 534,5 224,-2069 448,-4138 672,-6207 834,2094 1688,4179 2606,6231 177,-99 374,-237 477,-474 329,-757 924,-2343 1370,-3422 447,-1082 606,-1669 995,-2280 258,2048 516,4095 774,6142 211,3 421,5 631,8 -362,-2491 -952,-7417 -1061,-7465 -544,-237 -1571,2783 -1690,3068 -470,1124 -984,2380 -1367,3365 -876,-2111 -1753,-4222 -2630,-6333 -159,-146 -317,-133 -476,11 -296,900 -577,4775 -835,7351z"/>
   <path class="fil1 str1" d="M9754 3514l593 -2 19 5157c380,2161 3049,2454 4329,1112l42 -6271 619 5 -15 6382c-1012,1219 -3030,1605 -4300,864 -829,-440 -1207,-1205 -1288,-2182l1 -5065z"/>
   <path class="fil1 str1" d="M17029 9998c-257,4 -375,130 -328,402 236,227 632,417 1201,593 2354,316 3444,-2341 1709,-3757 -642,-467 -1392,-854 -1855,-1532 -620,-1069 87,-1640 993,-1791 149,24 438,12 583,68 795,301 852,-380 327,-484 -1244,-262 -2134,93 -2672,1059 -254,956 -46,1861 1540,2733 1745,964 1711,2795 2,3154 -576,1 -1072,-157 -1500,-445z"/>
   <path class="fil1 str1" d="M22117 3502c999,11 1998,22 2996,33 -23,165 -44,362 -68,527 -758,5 -1520,-20 -2278,-15 0,833 1,1667 1,2500 594,-4 1188,-9 1783,-14 -11,178 -21,356 -32,533 -589,-1 -1167,9 -1756,8 5,1077 -1,2142 4,3219 947,5 1894,11 2841,16 -47,179 -89,386 -136,565 -1117,-4 -2223,-11 -3340,-15 0,-2445 -15,-4912 -15,-7357z"/>
   <path class="fil1 str1" d="M27177 3516c219,-2 439,-4 659,-5 7,1602 15,3205 23,4807 141,2147 2507,2833 4329,1376 7,-2066 14,-4132 21,-6198 201,-4 402,-7 603,-11 -3,2087 -25,4243 -28,6330 -841,1243 -4887,2263 -5505,-1046 -155,-1718 -111,-3491 -102,-5253z"/>
   <path class="fil1 str1" d="M35722 4389c4,882 9,1765 13,2648 395,14 785,5 1170,-34 457,-158 769,-469 987,-881 62,-350 64,-699 0,-1048 -189,-333 -489,-559 -889,-688 -427,1 -854,2 -1281,3zm242 296c11,666 -6,1414 37,2045 268,2 818,29 1027,-71 717,-345 934,-1845 -148,-1973 -200,2 -716,-4 -916,-1z"/>
   <polygon class="fil1 str1" points="40705,3496 41381,3488 41340,10304 44164,10342 44124,10900 40702,10871 "/>
   <path class="fil2 str2" d="M42651 1669c2,-540 1,-1090 2,-1630 221,-12 441,-24 661,-37 1,562 2,1124 3,1686 657,-10 1314,-20 1971,-31 23,234 45,467 68,700 -679,14 -1381,7 -2059,21 4,2311 32,4644 36,6955 -223,-1 -446,-1 -669,-2 -20,-2332 -14,-4650 14,-6973 -682,-10 -1376,-4 -2059,-15 1,-211 14,-440 16,-652 671,-10 1345,-12 2016,-22z"/>
   <polygon class="fil1 str1" points="46212,3541 46868,3385 46862,10995 46176,10927 "/>
   <polygon class="fil1 str1" points="48255,3496 53192,3492 53158,3957 51036,3944 51046,10974 50337,10973 50363,3951 48249,3922 "/>
   <path class="fil1 str1" d="M54770 3645c220,-2 439,-3 659,-5 8,1602 16,3205 24,4807 141,2147 2506,2833 4328,1376 7,-2066 14,-4132 21,-6198 201,-3 402,-7 603,-11 -3,2087 -25,4243 -27,6330 -842,1243 -4888,2263 -5506,-1046 -155,-1718 -111,-3490 -102,-5253z"/>
   <path class="fil1 str1" d="M74546 4956c98,63 191,35 220,-41 63,-143 99,-314 119,-463 15,-80 -29,-114 -67,-131 -2830,-1954 -5696,-433 -6252,2120 -423,2402 1227,4115 3048,4434 1540,211 3058,-660 3450,-1270 13,-708 25,-1415 37,-2123 -201,-3 -403,-6 -604,-9 -7,661 -14,1322 -21,1983 -1935,1805 -5080,527 -5324,-2064 -32,-499 21,-965 137,-1408 1402,-2786 3923,-2187 5257,-1028z"/>
   <polygon class="fil1 str1" points="77263,3579 77919,3423 77913,11033 77228,10965 "/>
   <path class="fil1 str1" d="M79843 10909c-178,-20 -356,-39 -534,-59 979,-2335 1958,-4670 2937,-7006 152,-230 364,-327 619,-328 991,2367 1983,4734 2974,7102 76,163 68,239 -53,254 -148,11 -289,24 -439,21 -436,-912 -838,-1836 -1207,-2773 -1042,5 -2083,3 -3122,-11 -367,937 -752,1871 -1175,2800zm2748 -6465l1336 3110 -2657 -3 1321 -3107z"/>
   <path class="fil1 str1" d="M35669 10363c-70,-8 -141,-15 -212,-23 389,-928 778,-1856 1167,-2784 61,-92 145,-130 246,-131 394,941 788,1882 1182,2822 30,65 27,95 -21,101 -59,5 -115,10 -175,9 -173,-363 -333,-730 -479,-1102 -414,2 -828,1 -1241,-4 -146,372 -299,743 -467,1112zm1092 -2569l531 1236 -1056 -1 525 -1235z"/>
   <path class="fil1 str1" d="M62650 3434c728,-3 1456,-6 2184,-8 2241,734 2055,2956 452,4010 785,1167 1660,2306 2649,3251 61,46 81,95 37,148 -90,92 -179,184 -269,276 -65,32 -127,24 -186,-24 -1147,-1047 -1988,-2267 -2838,-3493 -471,6 -942,13 -1414,19 -8,1108 -17,2215 -25,3322 -202,46 -404,92 -606,138 5,-2547 10,-5093 16,-7639zm609 491c457,28 915,55 1373,83 1373,437 1802,1905 238,3030 -542,4 -1083,9 -1625,14 5,-1042 9,-2085 14,-3127z"/>
  </g>
 </g>
</svg>
